<mxfile host="app.diagrams.net" agent="Mozilla/5.0 (X11; Linux x86_64) AppleWebKit/537.36 (KHTML, like Gecko) Chrome/131.0.0.0 Safari/537.36" version="25.0.3">
  <diagram name="Page-1" id="2cc2dc42-3aac-f2a9-1cec-7a8b7cbee084">
    <mxGraphModel dx="2390" dy="2147" grid="1" gridSize="10" guides="1" tooltips="1" connect="1" arrows="1" fold="1" page="1" pageScale="1" pageWidth="1100" pageHeight="850" background="#ffffff" math="0" shadow="0">
      <root>
        <mxCell id="0" />
        <mxCell id="1" parent="0" />
        <mxCell id="7026571954dc6520-1" value="" style="strokeWidth=1;shadow=0;dashed=0;align=center;html=1;shape=mxgraph.mockup.containers.browserWindow;rSize=0;strokeColor=default;mainText=,;recursiveResize=0;rounded=0;labelBackgroundColor=none;fontFamily=Verdana;fontSize=12;fillColor=default;" parent="1" vertex="1">
          <mxGeometry x="680" y="-550" width="1080" height="1230" as="geometry" />
        </mxCell>
        <mxCell id="7026571954dc6520-2" value="Page 1" style="strokeWidth=1;shadow=0;dashed=0;align=center;html=1;shape=mxgraph.mockup.containers.anchor;fontSize=17;fontColor=#666666;align=left;" parent="7026571954dc6520-1" vertex="1">
          <mxGeometry x="60" y="12" width="110" height="26" as="geometry" />
        </mxCell>
        <mxCell id="7026571954dc6520-3" value="https://www.default.com" style="strokeWidth=1;shadow=0;dashed=0;align=center;html=1;shape=mxgraph.mockup.containers.anchor;rSize=0;fontSize=17;fontColor=#666666;align=left;" parent="7026571954dc6520-1" vertex="1">
          <mxGeometry x="130" y="60" width="250" height="26" as="geometry" />
        </mxCell>
        <mxCell id="7026571954dc6520-15" value="" style="verticalLabelPosition=bottom;shadow=0;dashed=0;align=center;html=1;verticalAlign=top;strokeWidth=1;shape=mxgraph.mockup.markup.line;strokeColor=#999999;rounded=0;labelBackgroundColor=none;fillColor=#ffffff;fontFamily=Verdana;fontSize=12;fontColor=#000000;" parent="7026571954dc6520-1" vertex="1">
          <mxGeometry y="310" width="1050" height="20" as="geometry" />
        </mxCell>
        <mxCell id="7026571954dc6520-21" value="" style="verticalLabelPosition=bottom;shadow=0;dashed=0;align=center;html=1;verticalAlign=top;strokeWidth=1;shape=mxgraph.mockup.markup.line;strokeColor=#999999;rounded=0;labelBackgroundColor=none;fillColor=#ffffff;fontFamily=Verdana;fontSize=12;fontColor=#000000;" parent="7026571954dc6520-1" vertex="1">
          <mxGeometry x="10" y="775" width="1050" height="20" as="geometry" />
        </mxCell>
        <mxCell id="SW3FdNbesPMpoBhUyzO1-1" value="" style="rounded=0;whiteSpace=wrap;html=1;" vertex="1" parent="7026571954dc6520-1">
          <mxGeometry y="110" width="1070" height="60" as="geometry" />
        </mxCell>
        <mxCell id="SW3FdNbesPMpoBhUyzO1-2" value="Search" style="strokeWidth=1;shadow=0;dashed=0;align=center;html=1;shape=mxgraph.mockup.forms.searchBox;strokeColor=#999999;mainText=;strokeColor2=#008cff;fontColor=#666666;fontSize=17;align=left;spacingLeft=3;rounded=0;labelBackgroundColor=none;" vertex="1" parent="7026571954dc6520-1">
          <mxGeometry x="720" y="123.75" width="200" height="30" as="geometry" />
        </mxCell>
        <mxCell id="SW3FdNbesPMpoBhUyzO1-4" value="" style="line;strokeWidth=2;html=1;direction=south;" vertex="1" parent="7026571954dc6520-1">
          <mxGeometry x="990" y="115" width="10" height="20" as="geometry" />
        </mxCell>
        <mxCell id="SW3FdNbesPMpoBhUyzO1-9" value="logout" style="text;html=1;align=center;verticalAlign=middle;whiteSpace=wrap;rounded=0;" vertex="1" parent="7026571954dc6520-1">
          <mxGeometry x="1010" y="110" width="50" height="30" as="geometry" />
        </mxCell>
        <mxCell id="SW3FdNbesPMpoBhUyzO1-8" value="login" style="text;html=1;align=center;verticalAlign=middle;whiteSpace=wrap;rounded=0;" vertex="1" parent="7026571954dc6520-1">
          <mxGeometry x="940" y="110" width="60" height="30" as="geometry" />
        </mxCell>
        <mxCell id="SW3FdNbesPMpoBhUyzO1-10" value="LOGO" style="rounded=0;whiteSpace=wrap;html=1;" vertex="1" parent="7026571954dc6520-1">
          <mxGeometry x="10" y="115" width="80" height="55" as="geometry" />
        </mxCell>
        <mxCell id="SW3FdNbesPMpoBhUyzO1-11" value="Trang chủ" style="rounded=0;whiteSpace=wrap;html=1;" vertex="1" parent="7026571954dc6520-1">
          <mxGeometry x="150" y="126.25" width="60" height="27.5" as="geometry" />
        </mxCell>
        <mxCell id="SW3FdNbesPMpoBhUyzO1-12" value="Giày" style="rounded=0;whiteSpace=wrap;html=1;" vertex="1" parent="7026571954dc6520-1">
          <mxGeometry x="225" y="126.25" width="60" height="27.5" as="geometry" />
        </mxCell>
        <mxCell id="SW3FdNbesPMpoBhUyzO1-13" value="Quần áo" style="rounded=0;whiteSpace=wrap;html=1;" vertex="1" parent="7026571954dc6520-1">
          <mxGeometry x="300" y="126.25" width="60" height="27.5" as="geometry" />
        </mxCell>
        <mxCell id="SW3FdNbesPMpoBhUyzO1-14" value="Phụ kiện" style="rounded=0;whiteSpace=wrap;html=1;" vertex="1" parent="7026571954dc6520-1">
          <mxGeometry x="380" y="126.25" width="60" height="27.5" as="geometry" />
        </mxCell>
        <mxCell id="SW3FdNbesPMpoBhUyzO1-15" value="Tin tức" style="rounded=0;whiteSpace=wrap;html=1;" vertex="1" parent="7026571954dc6520-1">
          <mxGeometry x="460" y="126.25" width="60" height="27.5" as="geometry" />
        </mxCell>
        <mxCell id="SW3FdNbesPMpoBhUyzO1-16" value="liên hệ" style="rounded=0;whiteSpace=wrap;html=1;" vertex="1" parent="7026571954dc6520-1">
          <mxGeometry x="540" y="126.25" width="60" height="27.5" as="geometry" />
        </mxCell>
        <mxCell id="SW3FdNbesPMpoBhUyzO1-17" value="&lt;font style=&quot;font-size: 28px;&quot;&gt;Banner quản cáo sản phẩm nổi&amp;nbsp;&lt;/font&gt;" style="rounded=0;whiteSpace=wrap;html=1;" vertex="1" parent="7026571954dc6520-1">
          <mxGeometry x="10" y="180" width="1050" height="130" as="geometry" />
        </mxCell>
        <mxCell id="SW3FdNbesPMpoBhUyzO1-18" value="Sản phẩm" style="text;html=1;align=center;verticalAlign=middle;whiteSpace=wrap;rounded=0;" vertex="1" parent="7026571954dc6520-1">
          <mxGeometry x="40" y="330" width="60" height="30" as="geometry" />
        </mxCell>
        <mxCell id="SW3FdNbesPMpoBhUyzO1-19" value="" style="whiteSpace=wrap;html=1;aspect=fixed;" vertex="1" parent="7026571954dc6520-1">
          <mxGeometry x="50" y="390" width="120" height="120" as="geometry" />
        </mxCell>
        <mxCell id="SW3FdNbesPMpoBhUyzO1-20" value="" style="line;strokeWidth=2;html=1;" vertex="1" parent="7026571954dc6520-1">
          <mxGeometry x="60" y="480" width="100" height="10" as="geometry" />
        </mxCell>
        <mxCell id="SW3FdNbesPMpoBhUyzO1-31" value="" style="whiteSpace=wrap;html=1;aspect=fixed;" vertex="1" parent="7026571954dc6520-1">
          <mxGeometry x="55" y="550" width="120" height="120" as="geometry" />
        </mxCell>
        <mxCell id="SW3FdNbesPMpoBhUyzO1-32" value="" style="line;strokeWidth=2;html=1;" vertex="1" parent="7026571954dc6520-1">
          <mxGeometry x="65" y="640" width="100" height="10" as="geometry" />
        </mxCell>
        <mxCell id="SW3FdNbesPMpoBhUyzO1-33" value="" style="whiteSpace=wrap;html=1;aspect=fixed;" vertex="1" parent="7026571954dc6520-1">
          <mxGeometry x="250" y="550" width="120" height="120" as="geometry" />
        </mxCell>
        <mxCell id="SW3FdNbesPMpoBhUyzO1-34" value="" style="line;strokeWidth=2;html=1;" vertex="1" parent="7026571954dc6520-1">
          <mxGeometry x="260" y="640" width="100" height="10" as="geometry" />
        </mxCell>
        <mxCell id="SW3FdNbesPMpoBhUyzO1-35" value="" style="whiteSpace=wrap;html=1;aspect=fixed;" vertex="1" parent="7026571954dc6520-1">
          <mxGeometry x="440" y="550" width="120" height="120" as="geometry" />
        </mxCell>
        <mxCell id="SW3FdNbesPMpoBhUyzO1-36" value="" style="line;strokeWidth=2;html=1;" vertex="1" parent="7026571954dc6520-1">
          <mxGeometry x="450" y="640" width="100" height="10" as="geometry" />
        </mxCell>
        <mxCell id="SW3FdNbesPMpoBhUyzO1-37" value="" style="whiteSpace=wrap;html=1;aspect=fixed;" vertex="1" parent="7026571954dc6520-1">
          <mxGeometry x="630" y="550" width="120" height="120" as="geometry" />
        </mxCell>
        <mxCell id="SW3FdNbesPMpoBhUyzO1-38" value="" style="line;strokeWidth=2;html=1;" vertex="1" parent="7026571954dc6520-1">
          <mxGeometry x="640" y="640" width="100" height="10" as="geometry" />
        </mxCell>
        <mxCell id="SW3FdNbesPMpoBhUyzO1-39" value="" style="whiteSpace=wrap;html=1;aspect=fixed;" vertex="1" parent="7026571954dc6520-1">
          <mxGeometry x="840" y="550" width="120" height="120" as="geometry" />
        </mxCell>
        <mxCell id="SW3FdNbesPMpoBhUyzO1-40" value="" style="line;strokeWidth=2;html=1;" vertex="1" parent="7026571954dc6520-1">
          <mxGeometry x="850" y="640" width="100" height="10" as="geometry" />
        </mxCell>
        <mxCell id="SW3FdNbesPMpoBhUyzO1-41" value="" style="whiteSpace=wrap;html=1;aspect=fixed;" vertex="1" parent="7026571954dc6520-1">
          <mxGeometry x="250" y="390" width="120" height="120" as="geometry" />
        </mxCell>
        <mxCell id="SW3FdNbesPMpoBhUyzO1-42" value="" style="line;strokeWidth=2;html=1;" vertex="1" parent="7026571954dc6520-1">
          <mxGeometry x="260" y="480" width="100" height="10" as="geometry" />
        </mxCell>
        <mxCell id="SW3FdNbesPMpoBhUyzO1-43" value="" style="whiteSpace=wrap;html=1;aspect=fixed;" vertex="1" parent="7026571954dc6520-1">
          <mxGeometry x="440" y="390" width="120" height="120" as="geometry" />
        </mxCell>
        <mxCell id="SW3FdNbesPMpoBhUyzO1-44" value="" style="line;strokeWidth=2;html=1;" vertex="1" parent="7026571954dc6520-1">
          <mxGeometry x="450" y="480" width="100" height="10" as="geometry" />
        </mxCell>
        <mxCell id="SW3FdNbesPMpoBhUyzO1-45" value="" style="whiteSpace=wrap;html=1;aspect=fixed;" vertex="1" parent="7026571954dc6520-1">
          <mxGeometry x="630" y="390" width="120" height="120" as="geometry" />
        </mxCell>
        <mxCell id="SW3FdNbesPMpoBhUyzO1-46" value="" style="line;strokeWidth=2;html=1;" vertex="1" parent="7026571954dc6520-1">
          <mxGeometry x="640" y="480" width="100" height="10" as="geometry" />
        </mxCell>
        <mxCell id="SW3FdNbesPMpoBhUyzO1-47" value="" style="whiteSpace=wrap;html=1;aspect=fixed;" vertex="1" parent="7026571954dc6520-1">
          <mxGeometry x="840" y="390" width="120" height="120" as="geometry" />
        </mxCell>
        <mxCell id="SW3FdNbesPMpoBhUyzO1-48" value="" style="line;strokeWidth=2;html=1;" vertex="1" parent="7026571954dc6520-1">
          <mxGeometry x="850" y="480" width="100" height="10" as="geometry" />
        </mxCell>
        <mxCell id="SW3FdNbesPMpoBhUyzO1-49" value="Xem thêm" style="text;html=1;align=center;verticalAlign=middle;whiteSpace=wrap;rounded=0;" vertex="1" parent="7026571954dc6520-1">
          <mxGeometry x="480" y="730" width="60" height="30" as="geometry" />
        </mxCell>
        <mxCell id="SW3FdNbesPMpoBhUyzO1-50" value="&lt;font style=&quot;font-size: 28px;&quot;&gt;Banner quản cáo sản phẩm nổi&amp;nbsp;&lt;/font&gt;" style="rounded=0;whiteSpace=wrap;html=1;" vertex="1" parent="7026571954dc6520-1">
          <mxGeometry x="10" y="795" width="1050" height="130" as="geometry" />
        </mxCell>
        <mxCell id="SW3FdNbesPMpoBhUyzO1-51" value="" style="rounded=0;whiteSpace=wrap;html=1;" vertex="1" parent="7026571954dc6520-1">
          <mxGeometry x="15" y="940" width="1045" height="190" as="geometry" />
        </mxCell>
        <mxCell id="SW3FdNbesPMpoBhUyzO1-52" value="Tin tức" style="text;html=1;align=center;verticalAlign=middle;whiteSpace=wrap;rounded=0;" vertex="1" parent="7026571954dc6520-1">
          <mxGeometry x="20" y="950" width="60" height="30" as="geometry" />
        </mxCell>
        <mxCell id="SW3FdNbesPMpoBhUyzO1-53" value="" style="rounded=1;whiteSpace=wrap;html=1;" vertex="1" parent="7026571954dc6520-1">
          <mxGeometry x="40" y="990" width="170" height="110" as="geometry" />
        </mxCell>
        <mxCell id="SW3FdNbesPMpoBhUyzO1-54" value="" style="rounded=1;whiteSpace=wrap;html=1;" vertex="1" parent="7026571954dc6520-1">
          <mxGeometry x="245" y="990" width="170" height="110" as="geometry" />
        </mxCell>
        <mxCell id="SW3FdNbesPMpoBhUyzO1-55" value="" style="rounded=1;whiteSpace=wrap;html=1;" vertex="1" parent="7026571954dc6520-1">
          <mxGeometry x="460" y="990" width="170" height="110" as="geometry" />
        </mxCell>
        <mxCell id="SW3FdNbesPMpoBhUyzO1-56" value="" style="rounded=1;whiteSpace=wrap;html=1;" vertex="1" parent="7026571954dc6520-1">
          <mxGeometry x="690" y="990" width="170" height="110" as="geometry" />
        </mxCell>
        <mxCell id="SW3FdNbesPMpoBhUyzO1-57" value="" style="rounded=1;whiteSpace=wrap;html=1;" vertex="1" parent="7026571954dc6520-1">
          <mxGeometry x="885" y="990" width="170" height="110" as="geometry" />
        </mxCell>
        <mxCell id="SW3FdNbesPMpoBhUyzO1-58" value="Thông tin liên hệ | FQA | Địa chỉ" style="rounded=0;whiteSpace=wrap;html=1;" vertex="1" parent="7026571954dc6520-1">
          <mxGeometry x="15" y="1150" width="1045" height="60" as="geometry" />
        </mxCell>
      </root>
    </mxGraphModel>
  </diagram>
</mxfile>
